<?xml version="1.0" encoding="iso-8859-1"?>
<!-- Generator: Adobe Illustrator 21.0.0, SVG Export Plug-In . SVG Version: 6.00 Build 0)  -->
<svg xmlns="http://www.w3.org/2000/svg" xmlns:xlink="http://www.w3.org/1999/xlink" version="1.1" id="Capa_1" x="0px" y="0px" viewBox="0 0 511.978 511.978" style="enable-background:new 0 0 511.978 511.978;" xml:space="preserve" width="512" height="512">
<g>
	<path style="fill:#42A5F5;" d="M252.686,32.617l3.303-11.3c-1.831,0-3.661,0.667-5.1,2l-4.116,3.817L252.686,32.617z"/>
	<g>
		<path style="fill:#90CAF9;" d="M272.561,489.763c-1.093,0.589-2.316,0.898-3.558,0.898h-26.027c-1.242,0-2.465-0.309-3.558-0.898    l-38.233-20.606c-1.914-1.031-3.286-2.842-3.761-4.963l-71.598-319.826c-0.583-2.604,0.262-5.323,2.219-7.138L250.889,23.317    c2.877-2.667,7.322-2.667,10.199,0L383.933,137.23c1.957,1.815,2.802,4.533,2.219,7.138l-71.598,319.826    c-0.475,2.121-1.847,3.932-3.761,4.963L272.561,489.763z M307.236,462.555h0.01H307.236z"/>
	</g>
	<path style="fill:#90CAF9;" d="M255.989,21.317c-1.831,0-3.661,0.667-5.1,2L128.045,137.23l73.838,69.179L255.989,21.317z"/>
	<polygon style="fill:#42A5F5;" points="310.095,206.409 255.989,21.317 201.883,206.409  "/>
	<path style="fill:#42A5F5;" d="M383.933,137.23l-73.838,69.179l-41.092,284.252c1.242,0,2.465-0.309,3.558-0.898l38.233-20.606   c1.914-1.031,3.286-2.842,3.761-4.963l71.598-319.826C386.735,141.764,385.89,139.045,383.933,137.23L383.933,137.23z    M307.236,462.555h0.01H307.236z"/>
	<path style="fill:#42A5F5;" d="M128.045,137.23L128.045,137.23c-1.957,1.815-2.802,4.533-2.219,7.138l71.598,319.826   c0.475,2.121,1.847,3.932,3.761,4.963l38.233,20.606h0l-37.534-283.354L128.045,137.23z"/>
	<path style="fill:#90CAF9;" d="M201.883,206.409l37.534,283.354c1.093,0.589,2.316,0.898,3.558,0.898h26.027l0,0l41.092-284.252   H201.883z"/>
	<path style="fill:#42A5F5;" d="M441.055,310.86l70.911-3.946c-0.058-1.045-0.324-2.081-0.819-3.036l-41.196-79.46   c-0.97-1.871-2.682-3.247-4.717-3.792c0,0,0,0,0,0L441.055,310.86L441.055,310.86z"/>
	<path style="fill:#90CAF9;" d="M465.234,220.625c-2.035-0.544-4.206-0.208-5.981,0.926l-75.407,48.216   c-0.906,0.579-1.654,1.344-2.227,2.22l59.437,38.873L465.234,220.625z"/>
	<path style="fill:#42A5F5;" d="M381.618,271.987c-0.687,1.051-1.119,2.266-1.213,3.552l-13.641,186.83   c-0.18,2.457,0.859,4.845,2.778,6.389l21.443,17.258c0.822,0.661,1.771,1.109,2.768,1.376l47.302-176.533L381.618,271.987z"/>
	<path style="fill:#90CAF9;" d="M441.055,310.86L441.055,310.86l-47.302,176.533c0.63,0.169,1.276,0.281,1.934,0.281   c0.383,0,0.768-0.029,1.151-0.089l27.2-4.224c2.434-0.378,4.527-1.927,5.6-4.144l81.602-168.62   c0.562-1.161,0.796-2.429,0.726-3.683L441.055,310.86z M422.887,475.95h0.01H422.887z"/>
	<path style="fill:#42A5F5;" d="M130.36,271.987c-0.573-0.876-1.321-1.641-2.227-2.22l-75.407-48.216   c-1.775-1.135-3.945-1.471-5.981-0.926l24.178,90.235L130.36,271.987z"/>
	<path style="fill:#90CAF9;" d="M70.923,310.86l-24.178-90.235c0,0,0,0,0,0c-2.035,0.545-3.747,1.922-4.717,3.792l-41.196,79.46   c-0.495,0.955-0.761,1.991-0.819,3.036L70.923,310.86L70.923,310.86z"/>
	<path style="fill:#90CAF9;" d="M142.436,468.759c1.919-1.544,2.958-3.932,2.778-6.389l-13.641-186.83   c-0.094-1.286-0.525-2.501-1.213-3.552L70.923,310.86l47.302,176.533c0.997-0.267,1.947-0.715,2.768-1.376L142.436,468.759z"/>
	<path style="fill:#42A5F5;" d="M70.923,310.86l-70.911-3.946c-0.07,1.254,0.164,2.522,0.726,3.683l81.602,168.62   c1.073,2.217,3.166,3.766,5.6,4.144l27.2,4.224c0.383,0.06,0.768,0.089,1.151,0.089c0.658,0,1.304-0.112,1.934-0.281L70.923,310.86   L70.923,310.86z"/>
	<g>
		<path style="fill:#FFCA28;" d="M475.489,129.818h-14.857c-4.142,0-7.5-3.358-7.5-7.5s3.358-7.5,7.5-7.5h14.857    c4.142,0,7.5,3.358,7.5,7.5S479.631,129.818,475.489,129.818z"/>
	</g>
	<g>
		<path style="fill:#FFCA28;" d="M430.632,129.818h-14.857c-4.142,0-7.5-3.358-7.5-7.5s3.358-7.5,7.5-7.5h14.857    c4.142,0,7.5,3.358,7.5,7.5S434.774,129.818,430.632,129.818z"/>
	</g>
	<g>
		<path style="fill:#FFCA28;" d="M445.632,159.675c-4.142,0-7.5-3.358-7.5-7.5v-14.857c0-4.142,3.358-7.5,7.5-7.5s7.5,3.358,7.5,7.5    v14.857C453.132,156.317,449.774,159.675,445.632,159.675z"/>
	</g>
	<g>
		<path style="fill:#FFCA28;" d="M445.632,113.818c-4.142,0-7.5-3.358-7.5-7.5V92.461c0-4.142,3.358-7.5,7.5-7.5s7.5,3.358,7.5,7.5    v13.857C453.132,110.46,449.774,113.818,445.632,113.818z"/>
	</g>
	<g>
		<path style="fill:#FFCA28;" d="M381.043,79.315h-10.771c-4.142,0-7.5-3.358-7.5-7.5s3.358-7.5,7.5-7.5h10.771    c4.142,0,7.5,3.358,7.5,7.5S385.185,79.315,381.043,79.315z"/>
	</g>
	<g>
		<path style="fill:#FFCA28;" d="M419.277,79.315h-10.771c-4.142,0-7.5-3.358-7.5-7.5s3.358-7.5,7.5-7.5h10.771    c4.142,0,7.5,3.358,7.5,7.5S423.42,79.315,419.277,79.315z"/>
	</g>
	<g>
		<path style="fill:#FFCA28;" d="M394.775,103.818c-4.142,0-7.5-3.358-7.5-7.5V85.547c0-4.142,3.358-7.5,7.5-7.5s7.5,3.358,7.5,7.5    v10.771C402.275,100.46,398.917,103.818,394.775,103.818z"/>
	</g>
	<g>
		<path style="fill:#FFCA28;" d="M394.775,64.801c-4.142,0-7.5-3.358-7.5-7.5v-9.989c0-4.142,3.358-7.5,7.5-7.5s7.5,3.358,7.5,7.5    v9.989C402.275,61.443,398.917,64.801,394.775,64.801z"/>
	</g>
	<path style="fill:#1976D2;" d="M392.246,486.821c0.119,0.062,0.244,0.11,0.367,0.165c0.371,0.162,0.75,0.303,1.14,0.407   c0,0,0,0,0,0l10.014-37.371l-14.129,29.195c-0.673,1.39-1.747,2.517-3.054,3.258l4.401,3.542c0.275,0.221,0.571,0.407,0.871,0.586   C391.985,486.678,392.113,486.754,392.246,486.821z"/>
	<path style="fill:#42A5F5;" d="M321.086,96.045c16.103,14.933,23.057,37.298,18.259,58.729l-6.864,30.662l51.452-48.205   L261.089,23.317c-1.438-1.333-3.269-2-5.1-2l5.76,19.705L321.086,96.045z"/>
	<polygon style="fill:#1976D2;" points="261.749,41.021 255.989,21.317 252.686,32.617  "/>
	<path style="fill:#1976D2;" d="M383.933,137.23l-51.452,48.205l-52.937,236.468c-0.355,1.587-0.795,3.144-1.279,4.682   l-9.263,64.075c1.242,0,2.465-0.309,3.558-0.898l38.233-20.606c1.914-1.031,3.286-2.842,3.761-4.963l71.598-319.826   C386.735,141.764,385.89,139.045,383.933,137.23z"/>
	<path style="fill:#42A5F5;" d="M250.687,459.994l-14.2,7.653l2.93,22.116c0.82,0.442,1.713,0.726,2.632,0.841   c0.306,0.038,0.616,0.057,0.926,0.057h26.027l9.263-64.075C273.788,440.828,263.94,452.851,250.687,459.994z"/>
	<path style="fill:#1976D2;" d="M236.488,467.647l-3.927,2.116c-1.093,0.589-2.316,0.898-3.558,0.898h-25.028l35.443,19.102h0   L236.488,467.647z"/>
	<path style="fill:#1976D2;" d="M47.513,220.462c-0.258,0.041-0.514,0.095-0.769,0.163l7.333,27.367l19.574,12.516   c11.107,7.102,18.213,19.027,19.173,32.175l0.269,3.678l37.267-24.373c0,0,0,0,0-0.001c-0.142-0.218-0.296-0.428-0.459-0.631   c-0.004-0.005-0.009-0.01-0.013-0.015c-0.158-0.194-0.325-0.381-0.502-0.559c-0.046-0.046-0.096-0.088-0.144-0.133   c-0.143-0.136-0.286-0.272-0.44-0.397c-0.213-0.172-0.434-0.335-0.668-0.484l-75.407-48.216c-0.222-0.142-0.45-0.271-0.683-0.388   C50.643,220.462,49.059,220.217,47.513,220.462z"/>
	<path style="fill:#42A5F5;" d="M54.077,247.992l-7.333-27.367c0,0,0,0,0,0c-2.035,0.545-3.747,1.922-4.717,3.792l-6.179,11.918   L54.077,247.992z"/>
	<path style="fill:#42A5F5;" d="M145.214,462.37l-13.641-186.83c-0.023-0.314-0.067-0.624-0.129-0.928   c-0.01-0.048-0.026-0.094-0.036-0.142c-0.059-0.263-0.127-0.523-0.214-0.776c-0.008-0.025-0.019-0.048-0.028-0.073   c-0.098-0.277-0.209-0.55-0.339-0.813c-0.001-0.003-0.003-0.005-0.004-0.008c-0.138-0.28-0.292-0.551-0.463-0.812c0,0,0,0,0,0   l-37.267,24.373l9.759,133.661l15.373,57.372c0.391-0.105,0.771-0.246,1.142-0.408c0.122-0.055,0.247-0.103,0.366-0.164   c0.133-0.067,0.261-0.143,0.39-0.218c0.3-0.179,0.596-0.365,0.871-0.586l21.443-17.258   C144.355,467.214,145.393,464.827,145.214,462.37z"/>
	<path style="fill:#1976D2;" d="M118.224,487.393l-15.373-57.372l2.358,32.294c0.182,2.491-0.871,4.912-2.816,6.478l-17,13.682   c0.229,0.13,0.467,0.244,0.709,0.349c0.078,0.034,0.159,0.064,0.238,0.096c0.182,0.072,0.367,0.137,0.555,0.194   c0.08,0.024,0.159,0.05,0.24,0.072c0.263,0.071,0.53,0.133,0.803,0.176l27.2,4.224c0.383,0.06,0.768,0.089,1.151,0.089   c0.344,0,0.684-0.04,1.022-0.087C117.62,487.539,117.924,487.474,118.224,487.393z"/>
	<path style="fill:#1976D2;" d="M511.966,306.914C511.966,306.914,511.966,306.913,511.966,306.914   c-0.015-0.261-0.042-0.52-0.083-0.777c-0.001-0.006-0.002-0.012-0.003-0.017c-0.039-0.248-0.091-0.494-0.156-0.737   c-0.017-0.063-0.04-0.124-0.058-0.187c-0.055-0.189-0.112-0.378-0.183-0.564c-0.097-0.252-0.206-0.5-0.331-0.743   c-0.002-0.003-0.003-0.007-0.005-0.01l-41.107-79.289c-0.294-0.568-0.647-1.107-1.056-1.595c-0.014-0.016-0.029-0.031-0.043-0.047   c-0.158-0.185-0.329-0.358-0.504-0.526c-0.102-0.097-0.207-0.19-0.314-0.281c-0.102-0.087-0.208-0.169-0.315-0.249   c-0.122-0.092-0.244-0.184-0.371-0.268c-0.265-0.173-0.534-0.332-0.811-0.468c-0.073-0.036-0.15-0.066-0.225-0.1   c-0.24-0.109-0.483-0.205-0.729-0.287c-0.087-0.029-0.173-0.059-0.261-0.085c-0.06-0.018-0.121-0.026-0.181-0.042l-12.688,47.351   l14.358,27.695c2.197,4.238,3.142,8.936,2.846,13.577L511.966,306.914z"/>
	<path style="fill:#42A5F5;" d="M452.542,267.992l12.688-47.351c-0.256-0.068-0.513-0.139-0.772-0.179   c-0.013-0.002-0.025-0.002-0.038-0.004c-0.31-0.047-0.621-0.069-0.931-0.077c-0.091-0.002-0.182-0.001-0.273,0   c-0.258,0.003-0.516,0.019-0.772,0.048c-0.07,0.008-0.14,0.012-0.21,0.021c-0.316,0.045-0.628,0.111-0.936,0.196   c-0.071,0.019-0.139,0.045-0.209,0.067c-0.245,0.076-0.487,0.164-0.724,0.264c-0.084,0.035-0.167,0.07-0.25,0.109   c-0.294,0.138-0.584,0.288-0.861,0.466l-23.123,14.785L452.542,267.992z"/>
	<path style="fill:#42A5F5;" d="M511.632,309.586c0.08-0.256,0.151-0.515,0.203-0.776c0.005-0.026,0.008-0.053,0.013-0.08   c0.054-0.289,0.093-0.58,0.113-0.872c0-0.002,0-0.005,0-0.007c0.021-0.312,0.022-0.624,0.005-0.936v0l-42.22,2.35   c-0.211,3.304-1.045,6.58-2.526,9.639l-63.454,131.119l-10.014,37.371c0,0,0,0,0,0c0.3,0.081,0.605,0.146,0.912,0.194   c0.339,0.047,0.678,0.087,1.022,0.087c0.383,0,0.768-0.029,1.151-0.089l27.2-4.224c2.434-0.378,4.527-1.927,5.6-4.144   l81.602-168.62c0.137-0.283,0.253-0.573,0.352-0.868C511.608,309.682,511.617,309.633,511.632,309.586z"/>
</g>















</svg>
